<svg width="65" height="18" viewBox="0 0 65 18" fill="none" xmlns="http://www.w3.org/2000/svg">
<path d="M29.4665 12.4282C29.4665 9.48145 34.6815 10.7316 34.6815 8.37417C34.6815 7.42762 33.8957 6.64181 32.7169 6.64181C31.5739 6.64181 30.8417 7.39191 30.2702 8.85637C29.4129 11.0888 28.8236 15.25 25.9661 15.25C24.6981 15.25 23.4122 14.4464 23.4122 12.9283C23.4122 11.4103 24.8052 10.6423 26.2697 10.2315C27.6449 9.83864 29.2701 9.69577 29.2701 8.46347C29.2701 7.5705 28.4664 6.89184 27.252 6.89184C26.0732 6.89184 25.1803 7.51692 24.4838 8.92781C23.8944 10.1244 23.3229 12.1425 22.4478 13.5355C21.7691 14.6071 20.9476 15.25 19.9653 15.25C18.6795 15.25 17.9294 14.1963 17.9294 13.0712C17.9294 10.1244 23.0193 8.0527 23.0193 4.82016C23.0193 3.4807 22.1799 2.81991 21.3048 2.81991C20.9297 2.81991 20.6619 2.96278 20.6619 3.24853C20.6619 3.58786 21.019 3.62358 21.4477 3.83789C21.9477 4.07006 22.4121 4.49869 22.4121 5.33808C22.4121 6.37392 21.6798 7.15973 20.5904 7.15973C19.3581 7.15973 18.4473 6.24891 18.4473 5.05233C18.4473 3.53428 19.7332 2.48058 21.1976 2.48058C22.8764 2.48058 24.323 3.89147 24.323 6.10603C24.323 7.53478 23.7515 8.82066 23.7515 9.10641C23.7515 9.15998 23.7872 9.1957 23.8587 9.1957C23.9658 9.1957 24.0194 9.03497 24.1444 8.73136C24.8945 6.83827 25.5732 2.49844 28.2521 2.49844C29.788 2.49844 30.4667 3.89147 30.4667 5.12377C30.4667 6.14175 30.0737 7.4812 29.6987 8.58848C29.6094 8.83852 29.5558 8.98139 29.5558 9.07069C29.5558 9.15998 29.5915 9.1957 29.663 9.1957C29.7701 9.1957 29.8416 9.03497 29.9487 8.73136C30.5917 6.98114 31.4846 2.49844 34.5029 2.49844C36.0924 2.49844 36.771 3.69502 36.771 4.89159C36.771 7.55264 33.4492 9.96366 33.4492 12.7854C33.4492 13.8391 33.9671 14.2678 34.485 14.2678C34.9851 14.2678 35.4851 13.8034 35.4851 12.8569C35.4851 11.8746 35.0565 11.1602 34.9315 10.9102C34.8243 10.7316 34.7529 10.6066 34.7529 10.5173C34.7529 10.4637 34.7886 10.3566 34.9136 10.3566C34.9851 10.3566 35.0208 10.3923 35.1637 10.6423C35.3601 10.9995 35.8066 11.9282 35.8066 12.9283C35.8066 14.5357 34.36 15.2679 32.9491 15.2679C30.6452 15.2679 29.4665 13.5891 29.4665 12.4282ZM41.5003 11.4996C40.2501 11.4996 39.5 10.8566 39.125 10.303C38.9642 10.0708 38.9285 9.91008 38.8214 9.91008C38.7499 9.91008 38.7499 10.0172 38.7499 10.0708C38.7499 11.1602 40.4108 12.7854 42.2325 12.7854C43.5719 12.7854 44.2506 12.1068 44.2506 11.2138C44.2506 11.0174 44.1792 10.8923 44.1792 10.803C44.1792 10.7316 44.197 10.6245 44.322 10.6245C44.5364 10.6245 44.5721 11.2138 44.5721 11.4281C44.5721 13.3569 42.8397 15.2679 40.2858 15.2679C37.6784 15.2679 36.1246 13.3391 36.1246 11.1067C36.1246 8.49919 38.1248 5.80242 41.1788 5.80242C43.1612 5.80242 44.4828 6.92756 44.4828 8.55277C44.4828 10.0351 43.3934 11.4996 41.5003 11.4996ZM39.0178 8.78494C39.0178 9.51717 39.25 10.2494 39.8929 10.2494C40.8395 10.2494 41.4824 8.58848 41.4824 7.49906C41.4824 6.87398 41.2681 6.15961 40.643 6.15961C39.8215 6.15961 39.0178 7.40977 39.0178 8.78494ZM51.644 9.05283C50.6081 9.05283 49.9652 9.57075 49.6437 10.2673C49.3758 10.8388 49.2865 11.5531 49.2329 11.9818C48.9651 14.3928 48.1614 15.2679 46.7684 15.2679C45.5003 15.2679 44.8395 14.1427 44.8395 13.1605C44.8395 11.0174 47.2506 9.46359 47.2506 7.24903C47.2506 6.73111 46.9648 6.35606 46.554 6.35606C46.0361 6.35606 45.6789 6.92756 45.6789 7.71337C45.6789 8.46347 45.9825 8.76708 45.9825 8.99925C45.9825 9.08855 45.9111 9.15998 45.8397 9.15998C45.7325 9.15998 45.6789 9.07069 45.6075 8.90995C45.4468 8.51705 45.3575 8.10628 45.3575 7.71337C45.3575 6.69539 45.8932 5.80242 47.0184 5.80242C48.5186 5.80242 49.2151 7.07044 49.2151 8.58848C49.2151 9.78506 48.8043 10.7495 48.8043 11.0709C48.8043 11.196 48.84 11.2495 48.9115 11.2495C49.0186 11.2495 49.0722 11.0531 49.1615 10.7316C49.3044 10.178 49.4473 9.44573 49.5723 9.01711C50.0545 7.32047 51.0903 5.80242 52.7691 5.80242C54.0907 5.80242 54.8408 6.80255 54.8408 7.96341C54.8408 10.5173 52.2333 11.321 52.2333 13.3212C52.2333 14.0177 52.5012 14.4642 53.0191 14.4642C53.5906 14.4642 54.0014 13.7141 54.0014 12.839C54.0014 12.1425 53.6978 11.821 53.6978 11.6246C53.6978 11.571 53.7335 11.4638 53.8407 11.4638C53.93 11.4638 53.9835 11.4996 54.0907 11.7496C54.2336 12.0889 54.305 12.4818 54.305 12.8569C54.305 14.0535 53.5906 15.2679 51.7154 15.2679C50.1795 15.2679 49.2865 14.4285 49.2865 13.4641C49.2865 10.9102 53.287 11.6424 53.287 10.2673C53.287 9.71362 52.6977 9.05283 51.644 9.05283ZM59.801 11.6603C59.5152 13.0712 58.9973 15.2679 57.0149 15.2679C55.9076 15.2679 54.8718 14.1427 54.8718 12.0353C54.8718 10.5887 55.229 8.51705 56.0148 7.24903C56.5327 6.40964 57.2649 5.80242 58.1758 5.80242C59.3188 5.80242 59.8367 6.65967 59.8367 7.46334C59.8367 8.48133 59.1759 9.08855 58.4258 9.44573C57.1042 10.0708 55.2825 9.83864 55.2825 10.9816C55.2825 11.4817 55.8005 11.8389 56.7291 11.8389C58.2472 11.8389 59.408 11.2317 59.9795 9.46359C60.3903 8.2313 60.9797 5.80242 62.6942 5.80242C63.855 5.80242 64.3908 6.67753 64.3908 7.73123C64.3908 10.1958 61.4976 11.571 61.4976 13.6427C61.4976 14.2142 61.7119 14.7142 62.212 14.7142C62.837 14.7142 63.355 13.9463 63.355 12.8926C63.355 12.0711 63.0514 11.821 63.0514 11.6246C63.0514 11.571 63.0871 11.4638 63.2121 11.4638C63.2835 11.4638 63.3371 11.4996 63.4443 11.7496C63.5871 12.0889 63.6586 12.464 63.6586 12.8747C63.6586 14.0535 63.0871 15.2679 61.9084 15.2679C61.0333 15.2679 60.0688 14.5535 60.0688 12.5533C60.0688 11.3745 60.5153 9.82078 60.5153 9.62433C60.5153 9.51717 60.4975 9.44573 60.426 9.44573C60.301 9.44573 59.9795 10.7495 59.801 11.6603Z" fill="white"/>
</svg>
