<svg width="50" height="19" viewBox="0 0 50 19" fill="none" xmlns="http://www.w3.org/2000/svg">
<path d="M0.80766 13.4616C0.80766 12.2309 1.67301 11.1732 3.23064 11.1732C4.19214 11.1732 4.65366 11.5771 5.03826 11.5771C5.53824 11.5771 5.92284 10.8848 5.92284 9.8079C5.92284 7.90413 4.71135 6.46188 4.71135 4.57734C4.71135 2.59665 6.05745 1.539 7.59585 1.539C9.21117 1.539 10.1534 2.71203 10.1534 4.32735C10.1534 7.84644 5.69208 11.5771 5.69208 11.9232C5.69208 12.0194 6.03822 12.1732 6.84588 12.1732C9.36501 12.1732 11.9034 10.6348 11.9034 8.75025C11.9034 7.90413 11.4034 7.86567 11.4034 7.63491C11.4034 7.53876 11.4803 7.48107 11.5572 7.48107C11.9226 7.48107 13.7687 8.67333 13.7687 11.3463C13.7687 14.0385 11.9034 15.2885 10.1919 15.2885C7.53816 15.2885 6.17283 12.2693 5.51901 12.2693C5.26902 12.2693 5.1921 12.9039 4.86519 13.5577C4.44213 14.4231 3.71139 15.2885 2.55759 15.2885C1.7307 15.2885 0.80766 14.75 0.80766 13.4616ZM20.4855 5.09655C22.5431 5.09655 23.8315 6.86571 23.8315 9.38484C23.8315 12.6347 21.6585 15.2885 18.7356 15.2885C16.1203 15.2885 14.4473 13.1924 14.4473 10.7694C14.4473 9.11562 15.2357 7.73106 15.9472 6.98109C16.5434 6.3465 17.3895 5.82729 17.6587 5.82729C17.7164 5.82729 17.7933 5.84652 17.7933 5.9619C17.7933 6.23112 17.351 6.69264 17.351 8.03874C17.351 10.3656 18.6587 12.2116 20.5432 12.2116C22.1777 12.2116 23.3508 10.8463 23.3508 8.88486C23.3508 6.63495 21.8316 5.44269 20.524 5.44269C19.8894 5.44269 19.5817 5.75037 19.5817 6.05805C19.5817 6.28881 19.774 6.51957 20.1201 6.51957C20.4663 6.51957 20.8316 6.26958 21.2932 6.26958C22.0816 6.26958 22.6585 7.03878 22.6585 7.90413C22.6585 9.0387 21.6585 10.0963 20.3124 10.0963C18.9856 10.0963 17.851 9.05793 17.851 7.57722C17.851 6.13497 18.9279 5.09655 20.4855 5.09655ZM29.5397 6.05805C30.7127 6.05805 33.578 7.1157 33.578 9.40407C33.578 11.1732 31.8857 12.3463 29.5205 12.3463C28.4243 12.3463 26.7321 12.0963 25.8283 12.0963C24.6168 12.0963 24.2707 12.5578 24.2707 13.0193C24.2707 13.4039 24.5014 13.7885 25.136 13.7885C26.2321 13.7885 27.9628 12.6924 29.8858 12.6924C31.5396 12.6924 32.8088 13.5001 32.8088 15.1154C32.8088 17.4422 30.1743 18.9037 27.6167 18.9037C25.886 18.9037 23.463 18.2306 23.463 16.25C23.463 15 24.4245 14.4231 25.3668 14.4231C26.2514 14.4231 27.059 14.9231 27.1167 16.3461C27.1552 17.3653 27.2129 18.4614 28.2513 18.4614C29.1551 18.4614 29.5589 17.6345 29.5589 16.6922C29.5589 15.2115 28.559 13.9423 27.0013 13.9423C26.3667 13.9423 25.5591 14.1539 25.0976 14.1539C24.4822 14.1539 23.9053 13.75 23.9053 13.0193C23.9053 12.1732 24.6745 11.7694 25.6168 11.7501C26.1937 11.7501 26.559 11.7309 26.559 11.5963C26.559 11.5194 26.386 11.4425 26.1744 11.2886C25.3091 10.6732 24.5591 9.48099 24.5591 8.19258C24.5591 6.19266 26.4052 5.09655 28.4436 5.09655C30.0974 5.09655 31.4819 5.80806 31.7896 5.80806C31.8665 5.80806 31.9434 5.7696 31.9434 5.65422C31.9434 5.44269 31.6358 5.1927 31.6358 4.6158C31.6358 3.8466 32.2127 3.23124 33.0395 3.23124C33.8087 3.23124 34.5395 3.75045 34.5395 4.69272C34.5395 5.50038 34.001 6.32727 32.7703 6.32727C31.6742 6.32727 30.6166 5.69268 29.6166 5.69268C28.8859 5.69268 27.9821 6.03882 27.9821 7.6926C27.9821 9.59637 29.1935 11.8463 30.5012 11.8463C30.905 11.8463 31.5781 11.6347 31.5781 10.2502C31.5781 9.11562 31.1358 7.90413 30.4435 7.1157C30.1743 6.80802 29.8089 6.50034 29.3858 6.3465C29.1935 6.28881 29.1743 6.25035 29.1743 6.19266C29.1743 6.13497 29.2128 6.05805 29.5397 6.05805ZM36.5349 3.09663C36.5349 2.01975 37.4002 0.94287 38.6887 0.94287C39.7848 0.94287 40.727 1.7313 40.727 2.8851C40.727 3.98121 39.8809 5.13501 38.5925 5.13501C37.4002 5.13501 36.5349 4.17351 36.5349 3.09663ZM36.881 14.6923C37.4964 14.6923 38.0733 13.9039 38.0733 12.6732C38.0733 11.9232 37.7464 11.5771 37.7464 11.3655C37.7464 11.3078 37.7848 11.1925 37.9002 11.1925C37.9964 11.1925 38.0541 11.2309 38.1694 11.5001C38.3233 11.8655 38.4002 12.2886 38.4002 12.6924C38.4002 13.9808 37.7848 15.2885 36.4003 15.2885C35.1696 15.2885 33.9004 14.0385 33.9004 11.3463C33.9004 9.65406 34.4196 7.76952 35.2657 6.55803C35.8234 5.75037 36.5926 5.25039 37.381 5.25039C38.5733 5.25039 39.1886 6.1542 39.1886 7.21185C39.1886 9.75021 36.0734 11.2694 36.0734 13.7116C36.0734 14.2308 36.3234 14.6923 36.881 14.6923ZM46.4436 8.59641C45.3283 8.59641 44.636 9.15408 44.2898 9.90405C44.0014 10.5194 43.9052 11.2886 43.8476 11.7501C43.5591 14.3462 42.6938 15.2885 41.1938 15.2885C39.8285 15.2885 39.117 14.077 39.117 13.0193C39.117 10.7117 41.713 9.0387 41.713 6.65418C41.713 6.09651 41.4053 5.69268 40.9631 5.69268C40.4054 5.69268 40.0208 6.30804 40.0208 7.15416C40.0208 7.96182 40.3477 8.28873 40.3477 8.53872C40.3477 8.63487 40.2708 8.71179 40.1939 8.71179C40.0785 8.71179 40.0208 8.61564 39.9439 8.44257C39.7708 8.01951 39.6746 7.57722 39.6746 7.15416C39.6746 6.05805 40.2515 5.09655 41.463 5.09655C43.0784 5.09655 43.8283 6.46188 43.8283 8.09643C43.8283 9.38484 43.386 10.4233 43.386 10.7694C43.386 10.904 43.4245 10.9617 43.5014 10.9617C43.6168 10.9617 43.6745 10.7502 43.7706 10.404C43.9245 9.8079 44.0783 9.01947 44.2129 8.55795C44.7321 6.7311 45.8475 5.09655 47.6551 5.09655C49.0781 5.09655 49.8858 6.17343 49.8858 7.42338C49.8858 10.1733 47.0782 11.0386 47.0782 13.1924C47.0782 13.9423 47.3666 14.4231 47.9243 14.4231C48.5397 14.4231 48.982 13.6154 48.982 12.6732C48.982 11.9232 48.6551 11.5771 48.6551 11.3655C48.6551 11.3078 48.6935 11.1925 48.8089 11.1925C48.905 11.1925 48.9627 11.2309 49.0781 11.5001C49.232 11.8655 49.3089 12.2886 49.3089 12.6924C49.3089 13.9808 48.5397 15.2885 46.5205 15.2885C44.8667 15.2885 43.9052 14.3846 43.9052 13.3462C43.9052 10.5963 48.2128 11.3848 48.2128 9.90405C48.2128 9.30792 47.5782 8.59641 46.4436 8.59641Z" fill="white"/>
</svg>
