<svg width="43" height="35" viewBox="0 0 43 35" fill="none" xmlns="http://www.w3.org/2000/svg">
<path d="M1.34606 7.05797C1.34606 8.90405 2.78831 9.94247 4.07672 9.94247C4.73054 9.94247 5.03822 9.65402 5.03822 9.34634C5.03822 9.11558 4.84592 8.88482 4.49978 8.88482C4.15364 8.88482 3.78827 9.13481 3.32675 9.13481C2.53832 9.13481 1.96142 8.36561 1.96142 7.50026C1.96142 6.36569 2.96138 5.30804 4.30748 5.30804C5.63435 5.30804 6.76892 6.34646 6.76892 7.82717C6.76892 9.26942 5.69204 10.2886 4.13441 10.2886C2.0768 10.2886 0.74993 8.63483 0.74993 6.17339C0.74993 2.98121 3.32675 0.538999 6.80738 0.538999C10.0573 0.538999 12.4033 2.69276 12.4033 5.65418C12.4033 9.09635 9.24959 12.0962 6.26894 13.4808C6.07664 13.5577 5.99972 13.5962 5.99972 13.6731C5.99972 13.75 6.32663 14.0577 6.78815 14.0577C7.94195 14.0577 8.82653 12.1347 10.4034 12.1347C11.538 12.1347 12.3841 13.1154 12.3841 14.3077C12.3841 15.6345 11.3649 16.7499 9.86495 16.7499C8.13425 16.7499 6.82661 15.2884 5.96126 14.2885C5.67281 13.9615 5.63435 13.8462 5.49974 13.8462C5.40359 13.8462 5.24975 13.9038 4.92284 14C4.26902 14.1923 3.65366 14.2885 3.09599 14.2885C1.4999 14.2885 0.09611 13.5193 0.09611 12.0578C0.09611 11.0578 0.88454 10.2117 1.99988 10.2117C4.26902 10.2117 5.05745 13.2885 5.67281 13.2885C6.40355 13.2885 8.615 11.1347 8.615 8.05793C8.615 5.46188 6.99968 3.75041 4.78823 3.75041C2.74985 3.75041 1.34606 5.30804 1.34606 7.05797ZM13.2279 11.7501C13.2279 7.90409 18.1893 6.19262 18.1893 3.01967C18.1893 1.61588 17.3047 0.904369 16.3817 0.904369C15.9586 0.904369 15.6894 1.05821 15.6894 1.36589C15.6894 1.73126 16.0548 1.78895 16.5163 2.00048C17.0355 2.25047 17.5355 2.69276 17.5355 3.59657C17.5355 4.73114 16.7086 5.57726 15.5163 5.57726C14.1894 5.57726 13.2664 4.51961 13.2664 3.25043C13.2664 1.71203 14.7087 0.538999 16.7855 0.538999C18.7662 0.538999 21.1892 1.80818 21.1892 3.90425C21.1892 6.96182 15.5548 6.21185 15.5548 8.15408C15.5548 9.01943 16.4394 9.46172 17.4009 9.46172C18.6893 9.46172 19.8046 8.82713 20.4969 7.34642C21.2276 5.80802 21.4968 3.84656 22.343 2.38508C23.016 1.21205 23.8621 0.538999 24.9198 0.538999C26.3043 0.538999 27.0735 1.78895 27.0735 3.07736C27.0735 6.19262 23.3814 8.21177 23.3814 11.4616C23.3814 12.6347 23.9583 13.2116 24.516 13.2116C25.0544 13.2116 25.5928 12.7116 25.5928 11.6924C25.5928 10.6347 25.1313 9.86555 24.9967 9.59633C24.8813 9.40403 24.8044 9.26942 24.8044 9.17327C24.8044 9.11558 24.8429 9.0002 24.9775 9.0002C25.0544 9.0002 25.0929 9.03866 25.2467 9.30788C25.4582 9.69248 25.939 10.6924 25.939 11.7693C25.939 13.5577 24.7083 14.2885 23.4583 14.2885C22.0737 14.2885 20.67 13.0577 20.67 10.3848C20.67 9.09635 21.2853 7.40411 21.2853 7.15412C21.2853 7.09643 21.2469 7.05797 21.1699 7.05797C21.0546 7.05797 20.9969 7.23104 20.8623 7.55795C20.1315 9.34634 18.9393 14.2885 15.6317 14.2885C13.9587 14.2885 13.2279 13.0577 13.2279 11.7501ZM33.4391 11.4039C33.6507 11.4039 34.4199 10.7886 34.4199 9.65402C34.4199 7.36565 33.093 5.78879 33.093 3.94271C33.093 2.36585 34.0929 1.67357 35.0352 1.67357C36.3429 1.67357 37.2467 2.6543 37.2467 4.51961C37.2467 6.82721 35.5544 9.73094 34.2083 11.2886C33.9776 11.5578 33.8045 11.6732 33.8045 11.8462C33.8045 12.0385 34.4968 12.4039 35.0929 12.4039C37.1505 12.4039 38.7081 10.6347 38.7081 8.73098C38.7081 7.80794 38.2851 7.21181 37.9005 7.21181C37.7659 7.21181 37.6313 7.30796 37.4197 7.30796C37.1697 7.30796 37.0544 7.17335 37.0544 7.01951C37.0544 6.84644 37.2274 6.75029 37.4197 6.75029C37.612 6.75029 37.7274 6.86567 37.9197 6.86567C38.3812 6.86567 39.0158 6.23108 39.0158 5.03882C39.0158 2.53892 36.6121 1.07744 34.2083 1.07744C33.4968 1.07744 32.7661 1.19282 32.093 1.44281C31.4777 1.67357 31.0161 2.01971 31.0161 2.40431C31.0161 2.75045 31.42 2.78891 31.8046 3.0389C32.2276 3.30812 32.7661 3.90425 32.7661 4.80806C32.7661 6.00032 31.8046 7.01951 30.5354 7.01951C29.247 7.01951 28.4009 6.00032 28.4009 4.7696C28.4009 2.50046 31.17 0.538999 35.5544 0.538999C39.5158 0.538999 42.1119 2.09663 42.1119 4.11578C42.1119 6.00032 39.8812 6.65414 39.0158 6.82721C38.7466 6.8849 38.5543 6.8849 38.5543 6.98105C38.5543 7.11566 38.8428 7.03874 39.3812 7.15412C40.8811 7.50026 42.6311 8.34638 42.6311 10.5194C42.6311 12.9423 40.285 14.2885 38.0543 14.2885C36.1506 14.2885 34.7852 13.2693 33.7083 12.3847C33.5737 12.2693 33.4968 12.2116 33.4007 12.2116C33.343 12.2116 33.2661 12.2308 33.1507 12.3462C31.9392 13.5 30.5739 14.2885 29.3239 14.2885C27.6317 14.2885 26.3625 13.0385 26.3625 11.4616C26.3625 10.0194 27.4778 8.73098 29.2085 8.73098C31.593 8.73098 32.8622 11.4039 33.4391 11.4039ZM4.1921 20.539C5.94203 20.539 7.61504 21.9428 7.61504 24.7311C7.61504 26.7503 6.84584 30.2501 5.36513 32.4616C4.49978 33.7692 3.57674 34.2885 2.63447 34.2885C1.26914 34.2885 0.48071 33.1923 0.48071 31.9808C0.48071 28.7694 6.1151 26.5388 6.1151 23.0197C6.1151 21.6159 5.23052 20.9044 4.30748 20.9044C3.88442 20.9044 3.6152 21.0582 3.6152 21.3659C3.6152 21.7313 3.98057 21.7889 4.44209 22.0005C4.9613 22.2505 5.46128 22.6928 5.46128 23.5966C5.46128 24.7311 4.63439 25.5773 3.44213 25.5773C2.11526 25.5773 1.19222 24.5196 1.19222 23.2504C1.19222 21.712 2.61524 20.539 4.1921 20.539ZM11.6916 29.4809C14.5377 29.4809 16.5376 27.731 16.5376 26.6349C16.5376 26.2311 16.2684 25.8272 15.7492 25.8272C15.1146 25.8272 14.8261 26.4618 14.4992 26.8849C14.0185 27.5195 13.1916 28.2502 11.9224 28.2502C10.2686 28.2502 9.01868 27.0387 9.01868 25.2888C9.01868 22.2889 12.6339 20.539 15.4607 20.539C17.6722 20.539 20.0952 21.5966 20.0952 23.6927C20.0952 25.0004 19.1721 25.7696 18.0952 25.7696C16.9991 25.7696 16.1145 25.0004 16.1145 23.8466C16.1145 23.2697 16.3261 22.6351 16.3261 22.1159C16.3261 21.2697 15.7684 20.8851 15.0954 20.8851C14.2108 20.8851 13.6339 21.539 13.6339 22.4428C13.6339 23.6158 14.5954 24.5004 15.8838 25.2311C17.7491 26.2888 19.4029 27.231 19.4029 29.404C19.4029 32.1731 16.7107 34.2885 13.3647 34.2885C10.134 34.2885 7.86488 32.3078 7.86488 29.154C7.86488 27.6156 8.40332 26.3657 8.711 26.3657C8.76869 26.3657 8.82638 26.4234 8.82638 26.5195C8.82638 26.7311 8.59562 26.9234 8.59562 27.481C8.59562 28.7502 9.84557 29.4809 11.6916 29.4809ZM32.7191 31.2309C32.7191 28.0579 38.3342 29.404 38.3342 26.8657C38.3342 25.8465 37.4881 25.0004 36.2189 25.0004C34.9882 25.0004 34.1998 25.808 33.5844 27.3849C32.6614 29.7886 32.0268 34.2692 28.95 34.2692C27.5846 34.2692 26.2001 33.4039 26.2001 31.7693C26.2001 30.1348 27.7 29.3079 29.2769 28.8656C30.7576 28.4425 32.5075 28.2887 32.5075 26.9618C32.5075 26.0003 31.6422 25.2696 30.3345 25.2696C29.0654 25.2696 28.1039 25.9426 27.3539 27.4618C26.7193 28.7502 26.1039 30.9232 25.1617 32.4231C24.4309 33.5769 23.5463 34.2692 22.4887 34.2692C21.1041 34.2692 20.2965 33.1346 20.2965 31.9232C20.2965 28.7502 25.777 26.5195 25.777 23.0389C25.777 21.5966 24.8732 20.8851 23.9309 20.8851C23.5271 20.8851 23.2387 21.039 23.2387 21.3467C23.2387 21.712 23.6233 21.7505 24.0848 21.9813C24.6232 22.2312 25.1232 22.6928 25.1232 23.5966C25.1232 24.7119 24.3348 25.558 23.1617 25.558C21.8349 25.558 20.8541 24.5773 20.8541 23.2889C20.8541 21.6543 22.2387 20.5198 23.8156 20.5198C25.6232 20.5198 27.1808 22.0389 27.1808 24.4235C27.1808 25.9619 26.5655 27.3464 26.5655 27.6541C26.5655 27.7118 26.6039 27.7502 26.6808 27.7502C26.7962 27.7502 26.8539 27.5772 26.9885 27.2503C27.7962 25.2119 28.5269 20.539 31.4114 20.539C33.0652 20.539 33.7959 22.0389 33.7959 23.3658C33.7959 24.4619 33.3729 25.9042 32.969 27.0964C32.8729 27.3656 32.8152 27.5195 32.8152 27.6156C32.8152 27.7118 32.8537 27.7502 32.9306 27.7502C33.046 27.7502 33.1229 27.5772 33.2383 27.2503C33.9305 25.3657 34.892 20.539 38.1419 20.539C39.8534 20.539 40.5841 21.8274 40.5841 23.1158C40.5841 25.9811 37.0073 28.5771 37.0073 31.6155C37.0073 32.75 37.565 33.2116 38.1227 33.2116C38.6611 33.2116 39.1996 32.7116 39.1996 31.6924C39.1996 30.6347 38.738 29.8656 38.6034 29.5963C38.4881 29.404 38.4111 29.2694 38.4111 29.1733C38.4111 29.1156 38.4496 29.0002 38.5842 29.0002C38.6611 29.0002 38.6996 29.0387 38.8534 29.3079C39.065 29.6925 39.5457 30.6924 39.5457 31.7693C39.5457 33.5 37.9881 34.2885 36.4689 34.2885C33.9882 34.2885 32.7191 32.4808 32.7191 31.2309Z" fill="white"/>
</svg>
