<svg width="65" height="16" viewBox="0 0 65 16" fill="none" xmlns="http://www.w3.org/2000/svg">
<path d="M4.67289 10.4809C7.51893 10.4809 9.51885 8.73102 9.51885 7.63491C9.51885 7.23108 9.24963 6.82725 8.73042 6.82725C8.09583 6.82725 7.80738 7.46184 7.48047 7.8849C6.99972 8.51949 6.17283 9.25023 4.90365 9.25023C3.24987 9.25023 1.99992 8.03874 1.99992 6.28881C1.99992 3.28893 5.61516 1.539 8.44197 1.539C10.6534 1.539 13.0764 2.59665 13.0764 4.69272C13.0764 6.00036 12.1534 6.76956 11.0765 6.76956C9.98037 6.76956 9.09579 6.00036 9.09579 4.84656C9.09579 4.26966 9.30732 3.63507 9.30732 3.11586C9.30732 2.26974 8.74965 1.88514 8.0766 1.88514C7.19202 1.88514 6.61512 2.53896 6.61512 3.44277C6.61512 4.6158 7.57662 5.50038 8.86503 6.23112C10.7303 7.28877 12.3841 8.23104 12.3841 10.404C12.3841 13.1731 9.69192 15.2885 6.3459 15.2885C3.11526 15.2885 0.84612 13.3078 0.84612 10.154C0.84612 8.61564 1.38456 7.36569 1.69224 7.36569C1.74993 7.36569 1.80762 7.42338 1.80762 7.51953C1.80762 7.73106 1.57686 7.92336 1.57686 8.48103C1.57686 9.75021 2.82681 10.4809 4.67289 10.4809ZM18.6576 11.2309C17.3115 11.2309 16.5038 10.5386 16.1 9.94251C15.9269 9.69252 15.8885 9.51945 15.7731 9.51945C15.6962 9.51945 15.6962 9.63483 15.6962 9.69252C15.6962 10.8656 17.4846 12.6155 19.446 12.6155C20.8883 12.6155 21.619 11.8847 21.619 10.9232C21.619 10.7117 21.5421 10.5771 21.5421 10.4809C21.5421 10.404 21.5613 10.2887 21.6959 10.2887C21.9267 10.2887 21.9652 10.9232 21.9652 11.154C21.9652 13.2308 20.0999 15.2885 17.35 15.2885C14.5424 15.2885 12.8694 13.2116 12.8694 10.8079C12.8694 8.00028 15.0231 5.09655 18.3115 5.09655C20.446 5.09655 21.869 6.30804 21.869 8.05797C21.869 9.65406 20.696 11.2309 18.6576 11.2309ZM15.9846 8.30796C15.9846 9.09639 16.2346 9.88482 16.9269 9.88482C17.9461 9.88482 18.6384 8.09643 18.6384 6.9234C18.6384 6.25035 18.4076 5.48115 17.7346 5.48115C16.85 5.48115 15.9846 6.82725 15.9846 8.30796ZM27.503 5.09655C29.6183 5.09655 32.4451 5.9619 32.4451 8.61564C32.4451 10.8463 30.4451 11.9232 30.4451 13.6731C30.4451 14.2885 30.6951 14.6923 31.1182 14.6923C31.7336 14.6923 32.3105 13.8654 32.3105 12.7309C32.3105 11.8655 31.9835 11.5771 31.9835 11.3655C31.9835 11.3078 32.022 11.1925 32.1566 11.1925C32.2335 11.1925 32.2912 11.2309 32.4066 11.5001C32.5604 11.8655 32.6374 12.2693 32.6374 12.7116C32.6374 13.9616 32.0412 15.2885 30.7144 15.2885C29.6567 15.2885 28.8683 14.4423 28.8683 13.077C28.8683 12.7693 28.9067 12.4616 28.9067 12.3463C28.9067 12.2501 28.8875 12.1924 28.8298 12.1924C28.7337 12.1924 28.6568 12.5001 28.5029 12.8462C27.9068 14.1731 26.8107 15.2885 25.1184 15.2885C23.5031 15.2885 22.2147 14.2693 22.2147 12.7116C22.2147 11.2694 23.3108 9.8079 25.5992 9.8079C26.5222 9.8079 27.2722 10.0194 27.7722 10.2117C28.0991 10.3271 28.3106 10.4425 28.4645 10.4425C28.7337 10.4425 28.926 10.231 28.926 8.90409C28.926 6.46188 27.6568 5.50038 27.0222 5.50038C26.6376 5.50038 26.4261 5.71191 26.4261 6.00036C26.4261 6.23112 26.5607 6.3465 26.7338 6.46188C27.2722 6.76956 27.6376 7.13493 27.6376 7.8849C27.6376 8.71179 26.9645 9.55791 25.8492 9.55791C24.6377 9.55791 23.9839 8.78871 23.9839 7.75029C23.9839 6.23112 25.6761 5.09655 27.503 5.09655ZM28.2722 12.4424C28.4837 12.0194 28.5991 11.6155 28.5991 11.3655C28.5991 10.7886 28.0029 10.6732 27.5799 10.6732C26.5222 10.6732 25.6569 11.3655 25.6569 12.327C25.6569 13.1347 26.2722 13.4616 26.8491 13.4616C27.3683 13.4616 27.8876 13.1924 28.2722 12.4424ZM33.5714 7.15416C33.5714 6.05805 34.129 5.09655 35.4175 5.09655C36.9559 5.09655 37.6674 6.44265 37.6674 8.0772C37.6674 9.34638 37.2443 10.3656 37.2443 10.7502C37.2443 10.904 37.3212 10.9617 37.3981 10.9617C37.5135 10.9617 37.5712 10.8079 37.6674 10.404C37.8212 9.76944 37.9366 9.17331 38.1097 8.55795C38.6289 6.7311 39.7634 5.09655 41.5134 5.09655C42.9941 5.09655 43.8594 6.32727 43.8594 7.67337C43.8594 9.44253 42.4941 10.9617 40.7826 10.9617C39.8404 10.9617 38.7442 10.3271 38.7442 9.07716C38.7442 8.0772 39.3019 7.53876 39.9173 7.28877C40.2634 7.15416 40.7634 7.1157 40.9557 6.96186C41.0711 6.86571 41.1865 6.71187 41.1865 6.48111C41.1865 6.13497 40.9365 5.92344 40.5711 5.92344C39.6673 5.92344 38.9942 7.25031 38.8212 7.61568C38.2443 8.82717 37.8789 10.8271 37.7443 11.7501C37.5328 13.1155 37.2635 15.2885 35.2059 15.2885C33.6675 15.2885 33.0137 14.077 33.0137 13.0001C33.0137 10.8271 35.6098 8.8464 35.6098 6.71187C35.6098 5.98113 35.3021 5.67345 34.879 5.67345C34.2829 5.67345 33.9175 6.28881 33.9175 7.15416C33.9175 7.96182 34.2444 8.28873 34.2444 8.53872C34.2444 8.63487 34.1675 8.71179 34.0906 8.71179C33.9752 8.71179 33.9175 8.61564 33.8406 8.44257C33.6675 8.01951 33.5714 7.57722 33.5714 7.15416ZM50.2995 10.5771C48.9342 10.5771 48.1265 9.59637 48.1265 8.53872C48.1265 7.86567 48.4534 7.40415 48.7996 7.09647C49.2611 6.69264 49.6842 6.61572 49.6842 6.09651C49.6842 5.65422 49.3573 5.42346 48.8957 5.42346C48.0496 5.42346 46.8766 6.19266 46.8766 8.23104C46.8766 10.9617 49.0303 12.827 50.6649 12.827C51.7225 12.827 52.5302 12.1347 52.5302 10.9809C52.5302 10.6348 52.4148 10.5194 52.4148 10.3656C52.4148 10.2502 52.4917 10.1733 52.5687 10.1733C52.7994 10.1733 52.8571 10.7694 52.8571 11.0963C52.8571 13.1347 51.0495 15.2885 48.2227 15.2885C45.4536 15.2885 43.7613 13.0962 43.7613 10.6732C43.7613 7.86567 46.0112 5.09655 49.1842 5.09655C51.4533 5.09655 52.761 6.51957 52.761 8.05797C52.761 9.34638 51.8187 10.5771 50.2995 10.5771ZM61.2794 13.327C61.2794 13.9616 61.6063 14.3846 62.1447 14.3846C62.7601 14.3846 63.2601 13.6154 63.2601 12.6732C63.2601 11.9232 62.9332 11.5771 62.9332 11.3655C62.9332 11.3078 62.9716 11.1925 63.087 11.1925C63.1832 11.1925 63.2409 11.2309 63.3562 11.5001C63.5101 11.8655 63.587 12.2886 63.587 12.6924C63.587 13.9808 62.8178 15.2885 60.7986 15.2885C59.1449 15.2885 57.818 14.3654 57.818 12.6539C57.818 9.90405 60.2602 8.90409 60.2602 7.67337C60.2602 7.13493 60.0102 6.86571 59.5102 6.86571C57.7603 6.86571 57.4719 11.3655 57.4719 13.1924C57.4719 14.6539 56.8757 15.2885 55.8565 15.2885C54.6258 15.2885 53.4143 14.0385 53.4143 11.3463C53.4143 8.69256 54.4143 5.09655 55.7988 2.67357C56.395 1.63515 57.1257 0.94287 58.1449 0.94287C59.3949 0.94287 60.1064 1.90437 60.1064 3.0774C60.1064 4.2312 59.0487 5.48115 58.0295 6.82725C56.2027 9.21177 55.3758 11.1155 55.3758 12.9616C55.3758 14.1154 55.7796 14.6923 56.3373 14.6923C56.818 14.6923 57.1065 14.2308 57.1065 13.3847C57.1065 12.3655 57.1449 10.231 57.7026 8.36565C58.2411 6.5388 59.4718 5.09655 61.5102 5.09655C63.0486 5.09655 64.1639 6.09651 64.1639 7.63491C64.1639 10.3656 61.2794 11.1732 61.2794 13.327Z" fill="white"/>
</svg>
